SplineFontDB: 3.0
FontName: Libre Moretus-Bold
FullName: Libre Moretus Bold
FamilyName: Libre Moretus
Weight: Regular
Version: 1.0
StyleMapFamilyName: 
ItalicAngle: 0
UnderlinePosition: 0
UnderlineWidth: 0
Ascent: 750
Descent: 250
InvalidEm: 0
UFOAscent: 750
UFODescent: -250
LayerCount: 2
Layer: 0 0 "Back" 1
Layer: 1 0 "Fore" 0
StyleMap: 0x0040
FSType: 0
OS2Version: 0
OS2_WeightWidthSlopeOnly: 0
OS2_UseTypoMetrics: 0
CreationTime: 1481159287
ModificationTime: 1481159287
PfmFamily: 16
TTFWeight: 400
TTFWidth: 5
LineGap: 0
VLineGap: 0
OS2TypoAscent: 0
OS2TypoAOffset: 1
OS2TypoDescent: 0
OS2TypoDOffset: 1
OS2TypoLinegap: 0
OS2WinAscent: 0
OS2WinAOffset: 1
OS2WinDescent: 0
OS2WinDOffset: 1
HheadAscent: 0
HheadAOffset: 1
HheadDescent: 0
HheadDOffset: 1
OS2CapHeight: 700
OS2XHeight: 500
DEI: 91125
PickledDataWithLists: "(dp1
S'com.typemytype.robofont.compileSettings.autohint'
p2
I1
sS'com.typemytype.robofont.compileSettings.decompose'
p3
I1
sS'com.typemytype.robofont.foreground.layerStrokeColor'
p4
(lp5
F0.5
aF0
aF0.5
aF0.69999999999999996
asS'public.glyphOrder'
p6
(lp7
S'A'
aS'Agrave'
p8
aS'Aacute'
p9
aS'Acircumflex'
p10
aS'Atilde'
p11
aS'Adieresis'
p12
aS'Aring'
p13
aS'B'
aS'C'
aS'Ccedilla'
p14
aS'D'
aS'E'
aS'Egrave'
p15
aS'Eacute'
p16
aS'Ecircumflex'
p17
aS'Edieresis'
p18
aS'F'
aS'G'
aS'H'
aS'I'
aS'Igrave'
p19
aS'Iacute'
p20
aS'Icircumflex'
p21
aS'Idieresis'
p22
aS'J'
aS'K'
aS'L'
aS'M'
aS'N'
aS'Ntilde'
p23
aS'O'
aS'Ograve'
p24
aS'Oacute'
p25
aS'Ocircumflex'
p26
aS'Otilde'
p27
aS'Odieresis'
p28
aS'P'
aS'Q'
aS'R'
aS'S'
aS'T'
aS'U'
aS'Ugrave'
p29
aS'Uacute'
p30
aS'Ucircumflex'
p31
aS'Udieresis'
p32
aS'V'
aS'W'
aS'X'
aS'Y'
aS'Yacute'
p33
aS'Z'
aS'AE'
p34
aS'Eth'
p35
aS'Oslash'
p36
aS'Thorn'
p37
aS'a'
aS'agrave'
p38
aS'aacute'
p39
aS'acircumflex'
p40
aS'atilde'
p41
aS'adieresis'
p42
aS'aring'
p43
aS'b'
aS'c'
aS'ccedilla'
p44
aS'd'
aS'e'
aS'egrave'
p45
aS'eacute'
p46
aS'ecircumflex'
p47
aS'edieresis'
p48
aS'f'
aS'g'
aS'h'
aS'i'
aS'igrave'
p49
aS'iacute'
p50
aS'icircumflex'

StartChar: A
Encoding: 0 65 0
GlifName: A_
Width: 600
VWidth: 0
Flags: W
LayerCount: 2
Fore
SplineSet
344 620 m 257
 239 334 l 257
 450 334 l 257
 344 620 l 257
223 288 m 257
 200 224 183 177 172 143 c 258
 155 92 l 258
 144 63 158 51 194 44 c 258
 250 34 l 257
 250 -5 l 257
 101 0 l 257
 -13 -5 l 257
 -13 34 l 257
 37 44 l 258
 68 51 80 62 92 91 c 256
 148 232 206 383 253 504 c 256
 280 575 306 641 331 707 c 257
 417 726 l 257
 438 667 462 604 489 536 c 256
 535 418 596 264 667 92 c 256
 679 63 688 51 719 44 c 258
 769 34 l 257
 769 -5 l 257
 607 0 l 257
 444 -5 l 257
 444 34 l 257
 498 44 l 258
 534 51 550 63 539 92 c 256
 528 120 510 168 494 211 c 256
 485 236 476 261 465 288 c 257
 223 288 l 257
EndSplineSet
PickledDataWithLists: "(dp1
S'com.schriftgestaltung.Glyphs.lastChange'
p2
S'2016-07-10 17:53:03 +0000'
p3
s."
EndChar

StartChar: B
Encoding: 1 66 1
GlifName: B_
Width: 600
VWidth: 0
Flags: W
LayerCount: 2
Fore
SplineSet
207 346 m 257
 207 586 l 258
 207 618 218 635 241 635 c 258
 286 635 l 258
 357 635 454 621 454 502 c 256
 454 392 407 346 326 346 c 258
 207 346 l 257
569 123 m 258
 427 330 l 257
 495 360 558 414 558 502 c 256
 558 650 463 672 337 672 c 257
 21 672 l 257
 21 648 l 257
 83 632 l 258
 105 626 117 614 117 582 c 258
 117 90 l 258
 117 58 105 46 83 40 c 258
 21 24 l 257
 21 0 l 257
 303 0 l 257
 303 24 l 257
 241 40 l 258
 219 46 207 58 207 90 c 258
 207 300 l 257
 330 300 l 257
 392 196 l 257
 430 137 450 87 499 36 c 256
 559 -27 658 -12 690 0 c 257
 690 24 l 257
 654 24 620 49 569 123 c 258
  PathStart: -2
EndSplineSet
PickledDataWithLists: "(dp1
S'com.schriftgestaltung.Glyphs.lastChange'
p2
S'2016-07-13 03:51:21 +0000'
p3
s."
EndChar

StartChar: C
Encoding: 2 67 2
GlifName: C_
Width: 600
VWidth: 0
Flags: W
LayerCount: 2
Fore
SplineSet
32 336 m 257
 32 106 195 -20 385 -20 c 257
 572 -20 738 105 738 336 c 257
 738 543 598 692 385 692 c 257
 173 692 32 547 32 336 c 257
  PathStart: -2
623 336 m 257
 623 150 534 23 385 23 c 257
 255 23 146 150 146 336 c 257
 146 524 235 648 385 648 c 257
 534 648 623 522 623 336 c 257
  PathStart: -2
EndSplineSet
PickledDataWithLists: "(dp1
S'com.schriftgestaltung.Glyphs.lastChange'
p2
S'2016-07-13 03:51:46 +0000'
p3
s."
EndChar

StartChar: D
Encoding: 3 68 3
GlifName: D_
Width: 600
VWidth: 0
Flags: W
LayerCount: 2
Fore
SplineSet
781 648 m 257
 781 672 l 257
 499 672 l 257
 499 648 l 257
 561 632 l 258
 583 626 595 614 595 582 c 258
 595 369 l 257
 218 369 l 257
 218 582 l 258
 218 614 230 626 252 632 c 258
 314 648 l 257
 314 672 l 257
 32 672 l 257
 32 648 l 257
 94 632 l 258
 116 626 128 614 128 582 c 258
 128 90 l 258
 128 58 116 46 94 40 c 258
 32 24 l 257
 32 0 l 257
 314 0 l 257
 314 24 l 257
 252 40 l 258
 230 46 218 58 218 90 c 258
 218 323 l 257
 595 323 l 257
 595 90 l 258
 595 58 583 46 561 40 c 258
 499 24 l 257
 499 0 l 257
 781 0 l 257
 781 24 l 257
 719 40 l 258
 697 46 685 58 685 90 c 258
 685 582 l 258
 685 614 697 626 719 632 c 258
 781 648 l 257
EndSplineSet
PickledDataWithLists: "(dp1
S'com.schriftgestaltung.Glyphs.lastChange'
p2
S'2016-07-13 03:50:55 +0000'
p3
s."
EndChar

StartChar: E
Encoding: 4 69 4
GlifName: E_
Width: 600
VWidth: 0
Flags: W
LayerCount: 2
Fore
SplineSet
407 624 m 257
 464 624 477 610 487 581 c 258
 519 490 l 257
 550 490 l 257
 568 672 l 257
 32 672 l 257
 32 648 l 257
 94 632 l 258
 116 626 128 614 128 582 c 258
 128 90 l 258
 128 58 116 46 94 40 c 258
 32 24 l 257
 32 0 l 257
 578 0 l 257
 608 202 l 257
 574 202 l 257
 514 89 l 258
 499 61 471 46 434 46 c 258
 252 46 l 258
 229 46 218 64 218 96 c 258
 218 320 l 257
 357 320 l 258
 389 320 401 308 407 286 c 258
 423 224 l 257
 447 224 l 257
 447 462 l 257
 423 462 l 257
 407 400 l 258
 401 378 389 366 357 366 c 258
 218 366 l 257
 218 576 l 258
 218 608 229 625 252 625 c 257
 407 624 l 257
EndSplineSet
PickledDataWithLists: "(dp1
S'com.schriftgestaltung.Glyphs.lastChange'
p2
S'2016-07-10 13:47:30 +0000'
p3
s."
EndChar

StartChar: F
Encoding: 5 70 5
GlifName: F_
Width: 600
VWidth: 0
Flags: W
LayerCount: 2
Fore
SplineSet
32 648 m 257
 94 632 l 258
 116 626 128 614 128 582 c 258
 128 90 l 258
 128 58 116 46 94 40 c 258
 32 24 l 257
 32 0 l 257
 314 0 l 257
 314 24 l 257
 252 40 l 258
 230 46 218 58 218 90 c 258
 218 320 l 257
 357 320 l 258
 389 320 401 308 407 286 c 258
 423 224 l 257
 447 224 l 257
 447 462 l 257
 423 462 l 257
 407 400 l 258
 401 378 389 366 357 366 c 258
 218 366 l 257
 218 576 l 258
 218 608 229 625 252 625 c 258
 407 624 l 258
 464 624 477 610 487 581 c 258
 519 490 l 257
 550 490 l 257
 568 672 l 257
 32 672 l 257
 32 648 l 257
EndSplineSet
PickledDataWithLists: "(dp1
S'com.schriftgestaltung.Glyphs.lastChange'
p2
S'2016-07-10 17:29:38 +0000'
p3
s."
EndChar

StartChar: G
Encoding: 6 71 6
GlifName: G_
Width: 600
VWidth: 0
Flags: W
LayerCount: 2
Fore
SplineSet
32 336 m 257
 32 106 195 -20 385 -20 c 257
 572 -20 738 105 738 336 c 257
 738 543 598 692 385 692 c 257
 173 692 32 547 32 336 c 257
  PathStart: -2
623 336 m 257
 623 150 534 23 385 23 c 257
 255 23 146 150 146 336 c 257
 146 524 235 648 385 648 c 257
 534 648 623 522 623 336 c 257
  PathStart: -2
EndSplineSet
PickledDataWithLists: "(dp1
S'com.schriftgestaltung.Glyphs.lastChange'
p2
S'2016-07-13 03:51:51 +0000'
p3
s."
EndChar

StartChar: H
Encoding: 7 72 7
GlifName: H_
Width: 813
VWidth: 0
Flags: W
LayerCount: 2
Fore
SplineSet
791 648 m 257
 791 672 l 257
 499 672 l 257
 499 648 l 257
 561 632 l 258
 583 626 595 614 595 582 c 258
 595 369 l 257
 239 369 l 257
 239 582 l 258
 239 614 251 626 273 632 c 258
 335 648 l 257
 335 672 l 257
 43 672 l 257
 43 648 l 257
 105 632 l 258
 127 626 139 614 139 582 c 258
 139 90 l 258
 139 58 127 46 105 40 c 258
 43 24 l 257
 43 0 l 257
 335 0 l 257
 335 24 l 257
 273 40 l 258
 251 46 239 58 239 90 c 258
 239 323 l 257
 595 323 l 257
 595 90 l 258
 595 58 583 46 561 40 c 258
 499 24 l 257
 499 0 l 257
 791 0 l 257
 791 24 l 257
 729 40 l 258
 707 46 695 58 695 90 c 258
 695 582 l 258
 695 614 707 626 729 632 c 258
 791 648 l 257
EndSplineSet
PickledDataWithLists: "(dp1
S'com.schriftgestaltung.Glyphs.lastChange'
p2
S'2016-07-10 05:43:14 +0000'
p3
s."
EndChar

StartChar: I
Encoding: 8 73 8
GlifName: I_
Width: 346
VWidth: 0
Flags: W
LayerCount: 2
Fore
SplineSet
219 582 m 258
 219 614 231 626 253 632 c 258
 315 648 l 257
 315 672 l 257
 31 672 l 257
 31 648 l 257
 93 632 l 258
 115 626 127 614 127 582 c 258
 127 90 l 258
 127 58 115 46 93 40 c 258
 31 24 l 257
 31 0 l 257
 315 0 l 257
 315 24 l 257
 253 40 l 258
 231 46 219 58 219 90 c 258
 219 582 l 258
EndSplineSet
PickledDataWithLists: "(dp1
S'com.schriftgestaltung.Glyphs.lastChange'
p2
S'2016-07-10 05:29:56 +0000'
p3
s."
EndChar

StartChar: K
Encoding: 10 75 10
GlifName: K_
Width: 600
VWidth: 0
Flags: W
LayerCount: 2
Fore
SplineSet
194 582 m 257
 194 614 206 626 228 632 c 258
 290 648 l 257
 290 672 l 257
 8 672 l 257
 8 648 l 257
 70 632 l 258
 92 626 104 614 104 582 c 258
 104 90 l 258
 104 58 92 46 70 40 c 258
 8 24 l 257
 8 0 l 257
 290 0 l 257
 290 24 l 257
 228 40 l 258
 206 46 194 58 194 90 c 257
 194 582 l 257
315 323 m 257
 519 0 l 257
 711 0 l 257
 711 24 l 257
 649 40 l 258
 627 46 616 61 595 90 c 258
 385 379 l 257
 555 582 l 258
 599 635 634 637 671 648 c 257
 671 672 l 257
 399 672 l 257
 399 648 l 257
 461 632 l 258
 483 626 505 608 485 582 c 258
 315 369 l 257
 188 369 l 257
 188 323 l 257
 315 323 l 257
EndSplineSet
PickledDataWithLists: "(dp1
S'com.schriftgestaltung.Glyphs.lastChange'
p2
S'2016-07-10 17:53:23 +0000'
p3
s."
EndChar

StartChar: L
Encoding: 11 76 11
GlifName: L_
Width: 640
VWidth: 0
Flags: W
LayerCount: 2
Fore
SplineSet
630 230 m 257
 590 230 l 257
 540 130 l 258
 510 70 480 50 420 50 c 258
 335 50 l 258
 310 50 295 60 295 85 c 258
 295 595 l 257
 295 625 310 633 330 640 c 258
 390 660 l 257
 390 700 l 257
 40 700 l 257
 40 660 l 257
 100 640 l 258
 120 633 135 625 135 595 c 257
 135 106 l 258
 135 76 120 67 100 60 c 258
 40 40 l 257
 40 0 l 257
 610 0 l 257
 630 230 l 257
EndSplineSet
PickledDataWithLists: "(dp1
S'com.schriftgestaltung.Glyphs.lastChange'
p2
S'2016-07-10 17:30:53 +0000'
p3
s."
EndChar

StartChar: M
Encoding: 12 77 12
GlifName: M_
Width: 600
VWidth: 0
Flags: W
LayerCount: 2
Fore
SplineSet
781 648 m 257
 781 672 l 257
 499 672 l 257
 499 648 l 257
 561 632 l 258
 583 626 595 614 595 582 c 258
 595 369 l 257
 218 369 l 257
 218 582 l 258
 218 614 230 626 252 632 c 258
 314 648 l 257
 314 672 l 257
 32 672 l 257
 32 648 l 257
 94 632 l 258
 116 626 128 614 128 582 c 258
 128 90 l 258
 128 58 116 46 94 40 c 258
 32 24 l 257
 32 0 l 257
 314 0 l 257
 314 24 l 257
 252 40 l 258
 230 46 218 58 218 90 c 258
 218 323 l 257
 595 323 l 257
 595 90 l 258
 595 58 583 46 561 40 c 258
 499 24 l 257
 499 0 l 257
 781 0 l 257
 781 24 l 257
 719 40 l 258
 697 46 685 58 685 90 c 258
 685 582 l 258
 685 614 697 626 719 632 c 258
 781 648 l 257
EndSplineSet
PickledDataWithLists: "(dp1
S'com.schriftgestaltung.Glyphs.lastChange'
p2
S'2016-07-13 03:50:34 +0000'
p3
s."
EndChar

StartChar: N
Encoding: 13 78 13
GlifName: N_
Width: 813
VWidth: 0
Flags: W
LayerCount: 2
Fore
SplineSet
781 648 m 257
 781 672 l 257
 499 672 l 257
 499 648 l 257
 561 632 l 258
 583 626 595 614 595 582 c 258
 595 369 l 257
 218 369 l 257
 218 582 l 258
 218 614 230 626 252 632 c 258
 314 648 l 257
 314 672 l 257
 32 672 l 257
 32 648 l 257
 94 632 l 258
 116 626 128 614 128 582 c 258
 128 90 l 258
 128 58 116 46 94 40 c 258
 32 24 l 257
 32 0 l 257
 314 0 l 257
 314 24 l 257
 252 40 l 258
 230 46 218 58 218 90 c 258
 218 323 l 257
 595 323 l 257
 595 90 l 258
 595 58 583 46 561 40 c 258
 499 24 l 257
 499 0 l 257
 781 0 l 257
 781 24 l 257
 719 40 l 258
 697 46 685 58 685 90 c 258
 685 582 l 258
 685 614 697 626 719 632 c 258
 781 648 l 257
EndSplineSet
PickledDataWithLists: "(dp1
S'com.schriftgestaltung.Glyphs.lastChange'
p2
S'2016-07-13 03:50:39 +0000'
p3
s."
EndChar

StartChar: O
Encoding: 14 79 14
GlifName: O_
Width: 770
VWidth: 0
Flags: W
LayerCount: 2
Fore
SplineSet
32 336 m 257
 32 106 195 -20 385 -20 c 257
 572 -20 738 105 738 336 c 257
 738 543 598 692 385 692 c 257
 173 692 32 547 32 336 c 257
  PathStart: -2
623 336 m 257
 623 150 534 23 385 23 c 257
 255 23 146 150 146 336 c 257
 146 524 235 648 385 648 c 257
 534 648 623 522 623 336 c 257
  PathStart: -2
EndSplineSet
PickledDataWithLists: "(dp1
S'com.schriftgestaltung.Glyphs.lastChange'
p2
S'2016-07-10 05:48:35 +0000'
p3
s."
EndChar

StartChar: P
Encoding: 15 80 15
GlifName: P_
Width: 680
VWidth: 0
Flags: W
LayerCount: 2
Fore
SplineSet
420 700 m 257
 40 700 l 257
 40 660 l 257
 100 640 l 258
 120 633 135 624 135 594 c 258
 135 105 l 257
 135 75 120 67 100 60 c 258
 40 40 l 257
 40 0 l 257
 390 0 l 257
 390 40 l 257
 330 60 l 258
 310 67 295 75 295 105 c 257
 295 615 l 258
 295 640 310 650 335 650 c 258
 354 650 l 258
 442 650 490 598 490 500 c 256
 490 410 464 340 360 340 c 256
 354 340 330 340 330 320 c 256
 330 295 349 292 360 290 c 256
 512 258 660 350 660 500 c 256
 660 633 570 700 420 700 c 257
EndSplineSet
PickledDataWithLists: "(dp1
S'com.schriftgestaltung.Glyphs.lastChange'
p2
S'2016-07-10 18:11:57 +0000'
p3
sS'com.typemytype.robofont.layerData'
p4
(dp5
S'outline-ref'
p6
(dp7
S'name'
p8
S'P'
sS'lib'
p9
(dp10
sS'unicodes'
p11
(lp12
sS'width'
p13
I680
sS'contours'
p14
(lp15
(dp16
S'points'
p17
(lp18
(dp19
S'segmentType'
p20
S'curve'
p21
sS'x'
I660
sS'smooth'
p22
I01
sS'y'
I500
sa(dp23
S'y'
I633
sS'x'
I660
sg22
I00
sa(dp24
S'y'
I700
sS'x'
I576
sg22
I00
sa(dp25
g20
S'curve'
p26
sS'x'
I450
sg22
I01
sS'y'
I700
sa(dp27
g20
S'line'
p28
sS'x'
I40
sg22
I00
sS'y'
I700
sa(dp29
g20
S'line'
p30
sS'x'
I40
sg22
I00
sS'y'
I660
sa(dp31
g20
S'line'
p32
sS'x'
I100
sg22
I01
sS'y'
I645
sa(dp33
S'y'
I640
sS'x'
I120
sg22
I00
sa(dp34
S'y'
I630
sS'x'
I140
sg22
I00
sa(dp35
g20
S'curve'
p36
sS'x'
I140
sg22
I01
sS'y'
I590
sa(dp37
g20
S'line'
p38
sS'x'
I140
sg22
I01
sS'y'
I110
sa(dp39
S'y'
I70
sS'x'
I140
sg22
I00
sa(dp40
S'y'
I60
sS'x'
I120
sg22
I00
sa(dp41
g20
S'curve'
p42
sS'x'
I100
sg22
I01
sS'y'
I55
sa(dp43
g20
S'line'
p44
sS'x'
I40
sg22
I00
sS'y'
I40
sa(dp45
g20
S'line'
p46
sS'x'
I40
sg22
I00
sS'y'
I0
sa(dp47
g20
S'line'
p48
sS'x'
I390
sg22
I00
sS'y'
I0
sa(dp49
g20
S'line'
p50
sS'x'
I390
sg22
I00
sS'y'
I40
sa(dp51
g20
S'line'
p52
sS'x'
I328
sg22
I01
sS'y'
I56
sa(dp53
S'y'
I62
sS'x'
I306
sg22
I00
sa(dp54
S'y'
I74
sS'x'
I294
sg22
I00
sa(dp55
g20
S'curve'
p56
sS'x'
I294
sg22
I01
sS'y'
I106
sa(dp57
g20
S'line'
p58
sS'x'
I300
sg22
I01
sS'y'
I634
sa(dp59
S'y'
I649
sS'x'
I300
sg22
I00
sa(dp60
S'y'
I656
sS'x'
I307
sg22
I00
sa(dp61
g20
S'curve'
p62
sS'x'
I324
sg22
I00
sS'y'
I656
sa(dp63
g20
S'line'
p64
sS'x'
I354
sg22
I01
sS'y'
I656
sa(dp65
S'y'
I656
sS'x'
I442
sg22
I00
sa(dp66
S'y'
I598
sS'x'
I490
sg22
I00
sa(dp67
g20
S'curve'
p68
sS'x'
I490
sg22
I01
sS'y'
I500
sa(dp69
S'y'
I410
sS'x'
I490
sg22
I00
sa(dp70
S'y'
I340
sS'x'
I464
sg22
I00
sa(dp71
g20
S'curve'
p72
sS'x'
I360
sg22
I01
sS'y'
I340
sa(dp73
S'y'
I340
sS'x'
I354
sg22
I00
sa(dp74
S'y'
I340
sS'x'
I330
sg22
I00
sa(dp75
g20
S'curve'
p76
sS'x'
I330
sg22
I01
sS'y'
I320
sa(dp77
S'y'
I295
sS'x'
I330
sg22
I00
sa(dp78
S'y'
I292
sS'x'
I349
sg22
I00
sa(dp79
g20
S'curve'
p80
sS'x'
I360
sg22
I01
sS'y'
I290
sa(dp81
S'y'
I258
sS'x'
I512
sg22
I00
sa(dp82
S'y'
I350
sS'x'
I660
sg22
I00
sasasS'components'
p83
(lp84
sS'anchors'
p85
(lp86
sss."
EndChar

StartChar: Q
Encoding: 16 81 16
GlifName: Q_
Width: 600
VWidth: 0
Flags: W
LayerCount: 2
Fore
SplineSet
-43 336 m 257
 -43 106 120 -20 310 -20 c 257
 497 -20 663 105 663 336 c 257
 663 543 523 692 310 692 c 257
 98 692 -43 547 -43 336 c 257
  PathStart: -2
548 336 m 257
 548 150 459 23 310 23 c 257
 180 23 71 150 71 336 c 257
 71 524 160 648 310 648 c 257
 459 648 548 522 548 336 c 257
  PathStart: -2
912 -170 m 257
 690 -185 550 8 287 8 c 257
 204 8 178 -13 147 -33 c 257
 182 -73 l 257
 194 -64 l 257
 235 -36 264 -31 299 -33 c 256
 366 -36 586 -242 721 -246 c 256
 816 -249 876 -227 932 -203 c 257
 932 -165 l 257
 912 -170 l 257
EndSplineSet
PickledDataWithLists: "(dp1
S'com.schriftgestaltung.Glyphs.lastChange'
p2
S'2016-07-10 17:42:49 +0000'
p3
s."
EndChar

StartChar: R
Encoding: 17 82 17
GlifName: R_
Width: 681
VWidth: 0
Flags: W
LayerCount: 2
Fore
SplineSet
206 346 m 257
 206 582 l 258
 206 614 217 631 240 631 c 258
 272 631 l 258
 343 631 453 621 453 502 c 256
 453 392 406 346 325 346 c 258
 206 346 l 257
568 122 m 258
 426 329 l 257
 495 351 557 406 557 502 c 256
 557 642 420 672 304 672 c 258
 20 672 l 257
 20 648 l 257
 82 632 l 258
 104 626 116 614 116 582 c 258
 116 90 l 258
 116 58 104 46 82 40 c 258
 20 24 l 257
 20 0 l 257
 302 0 l 257
 302 24 l 257
 240 40 l 258
 218 46 206 58 206 90 c 258
 206 300 l 257
 329 300 l 257
 391 196 l 257
 429 137 449 87 498 36 c 256
 558 -27 657 -12 689 0 c 257
 689 24 l 257
 653 24 619 48 568 122 c 258
  PathStart: -2
EndSplineSet
PickledDataWithLists: "(dp1
S'com.schriftgestaltung.Glyphs.lastChange'
p2
S'2016-07-10 17:13:47 +0000'
p3
s."
EndChar

StartChar: T
Encoding: 19 84 19
GlifName: T_
Width: 666
VWidth: 0
Flags: W
LayerCount: 2
Fore
SplineSet
27 672 m 257
 16 480 l 257
 50 480 l 257
 91 583 l 258
 103 613 134 626 171 626 c 258
 253 626 l 258
 276 626 287 608 287 576 c 258
 287 90 l 258
 287 58 275 46 253 40 c 258
 191 24 l 257
 191 0 l 257
 475 0 l 257
 475 24 l 257
 413 40 l 258
 391 46 379 58 379 90 c 258
 379 576 l 258
 379 608 390 626 413 626 c 258
 495 626 l 258
 532 626 563 613 575 583 c 258
 616 480 l 257
 650 480 l 257
 639 672 l 257
 27 672 l 257
EndSplineSet
PickledDataWithLists: "(dp1
S'com.schriftgestaltung.Glyphs.lastChange'
p2
S'2016-07-10 17:21:06 +0000'
p3
s."
EndChar

StartChar: U
Encoding: 20 85 20
GlifName: U_
Width: 600
VWidth: 0
Flags: W
LayerCount: 2
Fore
SplineSet
781 648 m 257
 781 672 l 257
 499 672 l 257
 499 648 l 257
 561 632 l 258
 583 626 595 614 595 582 c 258
 595 369 l 257
 218 369 l 257
 218 582 l 258
 218 614 230 626 252 632 c 258
 314 648 l 257
 314 672 l 257
 32 672 l 257
 32 648 l 257
 94 632 l 258
 116 626 128 614 128 582 c 258
 128 90 l 258
 128 58 116 46 94 40 c 258
 32 24 l 257
 32 0 l 257
 314 0 l 257
 314 24 l 257
 252 40 l 258
 230 46 218 58 218 90 c 258
 218 323 l 257
 595 323 l 257
 595 90 l 258
 595 58 583 46 561 40 c 258
 499 24 l 257
 499 0 l 257
 781 0 l 257
 781 24 l 257
 719 40 l 258
 697 46 685 58 685 90 c 258
 685 582 l 258
 685 614 697 626 719 632 c 258
 781 648 l 257
EndSplineSet
PickledDataWithLists: "(dp1
S'com.schriftgestaltung.Glyphs.lastChange'
p2
S'2016-07-13 03:50:45 +0000'
p3
s."
EndChar

StartChar: a
Encoding: 26 97 26
GlifName: a
Width: 535
VWidth: 0
Flags: W
LayerCount: 2
Fore
SplineSet
305 60 m 257
 315 10 360 -15 410 -15 c 256
 460 -15 506 5 530 40 c 257
 520 75 l 257
 510 67 497 63 485 63 c 256
 463 63 450 75 450 96 c 258
 450 347 l 258
 450 425 405 510 270 510 c 256
 155 510 60 473 60 400 c 256
 60 350 100 330 130 330 c 256
 160 330 190 355 190 385 c 257
 190 410 l 257
 190 439 205 465 235 465 c 256
 284 465 300 444 300 355 c 258
 300 270 l 257
 152 270 30 219 30 120 c 256
 30 40 92 -15 171 -15 c 256
 230 -15 275 9 305 60 c 257
  PathStart: -2
300 120 m 258
 300 90 275 75 240 75 c 256
 190 75 170 120 170 150 c 256
 170 190 220 240 300 240 c 257
 300 120 l 258
EndSplineSet
PickledDataWithLists: "(dp1
S'com.schriftgestaltung.Glyphs.ColorIndex'
p2
I10
sS'com.schriftgestaltung.Glyphs.lastChange'
p3
S'2016-07-14 02:16:34 +0000'
p4
sS'public.markColor'
p5
S'0.75,0.75,0.75,1'
p6
sS'com.typemytype.robofont.layerData'
p7
(dp8
S'outline-ref'
p9
(dp10
S'name'
p11
S'a'
sS'lib'
p12
(dp13
sS'unicodes'
p14
(lp15
sS'width'
p16
I535
sS'contours'
p17
(lp18
(dp19
S'points'
p20
(lp21
(dp22
S'segmentType'
p23
S'curve'
p24
sS'x'
I49
sS'smooth'
p25
I01
sS'y'
I394
sa(dp26
S'y'
I437
sS'x'
I49
sg25
I00
sa(dp27
S'y'
I465
sS'x'
I77
sg25
I00
sa(dp28
g23
S'curve'
p29
sS'x'
I120
sg25
I01
sg11
S'inserted'
p30
sS'y'
I484
sa(dp31
S'y'
I501
sS'x'
I162
sg25
I00
sa(dp32
S'y'
I509
sS'x'
I217
sg25
I00
sa(dp33
g23
S'curve'
p34
sS'x'
I269
sg25
I01
sS'y'
I509
sa(dp35
S'y'
I509
sS'x'
I320
sg25
I00
sa(dp36
S'y'
I498
sS'x'
I365
sg25
I00
sa(dp37
g23
S'curve'
p38
sS'x'
I400
sg25
I01
sg11
S'inserted'
p39
sS'y'
I473
sa(dp40
S'y'
I448
sS'x'
I434
sg25
I00
sa(dp41
S'y'
I409
sS'x'
I455
sg25
I00
sa(dp42
g23
S'curve'
p43
sS'x'
I455
sg25
I01
sS'y'
I351
sa(dp44
S'y'
I315
sS'x'
I455
sg25
I00
sa(dp45
S'y'
I266
sS'x'
I453
sg25
I00
sa(dp46
g23
S'curve'
p47
sS'x'
I452
sg25
I01
sg11
S'inserted'
p48
sS'y'
I220
sa(dp49
S'y'
I173
sS'x'
I449
sg25
I00
sa(dp50
S'y'
I130
sS'x'
I448
sg25
I00
sa(dp51
g23
S'curve'
p52
sS'x'
I448
sg25
I01
sS'y'
I106
sa(dp53
S'y'
I79
sS'x'
I448
sg25
I00
sa(dp54
S'y'
I63
sS'x'
I463
sg25
I00
sa(dp55
g23
S'curve'
p56
sS'x'
I484
sg25
I01
sS'y'
I63
sa(dp57
S'y'
I63
sS'x'
I497
sg25
I00
sa(dp58
S'y'
I69
sS'x'
I514
sg25
I00
sa(dp59
g23
S'curve'
p60
sS'x'
I519
sg25
I00
sS'y'
I76
sa(dp61
g23
S'line'
p62
sS'x'
I529
sg25
I00
sS'y'
I43
sa(dp63
S'y'
I24
sS'x'
I521
sg25
I00
sa(dp64
S'y'
I10
sS'x'
I503
sg25
I00
sa(dp65
g23
S'curve'
p66
sS'x'
I482
sg25
I01
sg11
S'inserted'
p67
sS'y'
I1
sa(dp68
S'y'
I-10
sS'x'
I459
sg25
I00
sa(dp69
S'y'
I-15
sS'x'
I434
sg25
I00
sa(dp70
g23
S'curve'
p71
sS'x'
I410
sg25
I01
sS'y'
I-15
sa(dp72
S'y'
I-15
sS'x'
I351
sg25
I00
sa(dp73
S'y'
I15
sS'x'
I316
sg25
I00
sa(dp74
g23
S'curve'
p75
sS'x'
I305
sg25
I00
sS'y'
I61
sa(dp76
S'y'
I46
sS'x'
I298
sg25
I00
sa(dp77
S'y'
I27
sS'x'
I284
sg25
I00
sa(dp78
g23
S'curve'
p79
sS'x'
I263
sg25
I01
sg11
S'inserted'
p80
sS'y'
I12
sa(dp81
S'y'
I-4
sS'x'
I240
sg25
I00
sa(dp82
S'y'
I-15
sS'x'
I211
sg25
I00
sa(dp83
g23
S'curve'
p84
sS'x'
I173
sg25
I01
sS'y'
I-15
sa(dp85
S'y'
I-15
sS'x'
I134
sg25
I00
sa(dp86
S'y'
I-3
sS'x'
I99
sg25
I00
sa(dp87
g23
S'curve'
p88
sS'x'
I74
sg25
I01
sg11
S'inserted'
p89
sS'y'
I20
sa(dp90
S'y'
I43
sS'x'
I47
sg25
I00
sa(dp91
S'y'
I75
sS'x'
I31
sg25
I00
sa(dp92
g23
S'curve'
p93
sS'x'
I31
sg25
I01
sS'y'
I114
sa(dp94
S'y'
I180
sS'x'
I31
sg25
I00
sa(dp95
S'y'
I221
sS'x'
I72
sg25
I00
sa(dp96
g23
S'curve'
p97
sS'x'
I127
sg25
I01
sg11
S'inserted'
p98
sS'y'
I246
sa(dp99
S'y'
I270
sS'x'
I181
sg25
I00
sa(dp100
S'y'
I279
sS'x'
I248
sg25
I00
sa(dp101
g23
S'curve'
p102
sS'x'
I302
sg25
I00
sS'y'
I282
sa(dp103
g23
S'line'
p104
sS'x'
I302
sg25
I01
sS'y'
I346
sa(dp105
S'y'
I384
sS'x'
I302
sg25
I00
sa(dp106
S'y'
I413
sS'x'
I302
sg25
I00
sa(dp107
g23
S'curve'
p108
sS'x'
I294
sg25
I01
sg11
S'inserted'
p109
sS'y'
I433
sa(dp110
S'y'
I453
sS'x'
I285
sg25
I00
sa(dp111
S'y'
I464
sS'x'
I269
sg25
I00
sa(dp112
g23
S'curve'
p113
sS'x'
I235
sg25
I01
sS'y'
I464
sa(dp114
S'y'
I464
sS'x'
I210
sg25
I00
sa(dp115
S'y'
I461
sS'x'
I184
sg25
I00
sa(dp116
g23
S'curve'
p117
sS'x'
I184
sg25
I01
sS'y'
I434
sa(dp118
g23
S'line'
p119
sS'x'
I184
sg25
I00
sS'y'
I331
sa(dp120
g23
S'line'
p121
sS'x'
I130
sg25
I00
sS'y'
I309
sa(dp122
S'y'
I316
sS'x'
I87
sg25
I00
sa(dp123
S'y'
I350
sS'x'
I49
sg25
I00
sasa(dp124
g20
(lp125
(dp126
g23
S'line'
p127
sS'x'
I302
sg25
I00
sS'y'
I242
sa(dp128
S'y'
I238
sS'x'
I271
sg25
I00
sa(dp129
S'y'
I232
sS'x'
I240
sg25
I00
sa(dp130
g23
S'curve'
p131
sS'x'
I215
sg25
I01
sg11
S'inserted'
p132
sS'y'
I217
sa(dp133
S'y'
I202
sS'x'
I190
sg25
I00
sa(dp134
S'y'
I182
sS'x'
I173
sg25
I00
sa(dp135
g23
S'curve'
p136
sS'x'
I173
sg25
I01
sS'y'
I148
sa(dp137
S'y'
I110
sS'x'
I173
sg25
I00
sa(dp138
S'y'
I74
sS'x'
I193
sg25
I00
sa(dp139
g23
S'curve'
p140
sS'x'
I244
sg25
I01
sS'y'
I74
sa(dp141
S'y'
I74
sS'x'
I278
sg25
I00
sa(dp142
S'y'
I95
sS'x'
I301
sg25
I00
sa(dp143
g23
S'curve'
p144
sS'x'
I301
sg25
I01
sS'y'
I114
sasasS'components'
p145
(lp146
sS'anchors'
p147
(lp148
sss."
EndChar

StartChar: b
Encoding: 27 98 27
GlifName: b
Width: 592
VWidth: 0
Flags: W
LayerCount: 2
Fore
SplineSet
317 -10 m 256
 451 -10 562 93 562 241 c 256
 562 389 512 510 347 510 c 256
 278 510 217 468 205 433 c 257
 203 433 l 257
 209 459 214 499 215 536 c 257
 215 700 l 258
 215 731 202 750 172 750 c 256
 147 750 65 735 -5 715 c 257
 -5 690 l 257
 28 676 l 258
 52 666 65 645 65 607 c 258
 65 30 l 257
 157 0 257 -10 317 -10 c 256
207 240 m 256
 207 380 236 428 307 428 c 256
 358 428 413 370 413 241 c 256
 413 111 357 40 277 40 c 256
 237 40 207 110 207 240 c 256
EndSplineSet
PickledDataWithLists: "(dp1
S'com.schriftgestaltung.Glyphs.lastChange'
p2
S'2016-07-14 01:44:27 +0000'
p3
s."
EndChar

StartChar: c
Encoding: 28 99 28
GlifName: c
Width: 470
VWidth: 0
Flags: W
LayerCount: 2
Fore
SplineSet
255 491 m 256
 140 491 36 390 36 241 c 256
 36 93 131 -5 265 -5 c 256
 346 -5 414 38 446 101 c 257
 426 124 l 257
 396 89 353 53 303 53 c 256
 228 53 130 121 130 241 c 256
 130 371 183 450 314 450 c 257
 296 432 297 413 297 393 c 256
 297 359 327 332 357 332 c 256
 400 332 417 357 417 402 c 256
 417 461 350 491 255 491 c 256
  PathStart: -2
EndSplineSet
PickledDataWithLists: "(dp1
S'com.schriftgestaltung.Glyphs.lastChange'
p2
S'2016-07-14 01:44:49 +0000'
p3
s."
EndChar

StartChar: d
Encoding: 29 100 29
GlifName: d
Width: 559
VWidth: 0
Flags: W
LayerCount: 2
Fore
SplineSet
36 241 m 256
 36 93 135 -9 269 -9 c 256
 321 -9 363 6 395 33 c 257
 445 0 l 257
 475 24 l 257
 475 616 l 258
 475 642 486 650 509 658 c 258
 551 672 l 257
 551 696 l 257
 437 736 l 258
 409 746 391 740 391 712 c 258
 391 403 l 257
 379 438 318 491 269 491 c 256
 134 491 36 389 36 241 c 256
  PathStart: -2
130 241 m 256
 130 370 188 448 269 448 c 256
 350 448 391 371 391 241 c 256
 391 112 349 24 269 24 c 256
 188 24 130 111 130 241 c 256
  PathStart: -2
EndSplineSet
PickledDataWithLists: "(dp1
S'com.schriftgestaltung.Glyphs.lastChange'
p2
S'2016-07-14 01:50:27 +0000'
p3
s."
EndChar

StartChar: e
Encoding: 30 101 30
GlifName: e
Width: 521
VWidth: 0
Flags: W
LayerCount: 2
Fore
SplineSet
111 282 m 257
 491 282 l 257
 491 430 425 510 270 510 c 256
 135 510 30 390 30 241 c 256
 30 93 119 -15 258 -15 c 256
 369 -15 437 24 481 97 c 257
 451 127 l 257
 416 92 381 75 331 75 c 256
 239 75 185 149 185 282 c 257
 189 326 l 257
 189 418 218 464 270 464 c 256
 321 464 333 425 333 326 c 257
 111 326 l 257
 111 282 l 257
EndSplineSet
PickledDataWithLists: "(dp1
S'com.schriftgestaltung.Glyphs.lastChange'
p2
S'2016-07-14 01:55:02 +0000'
p3
sS'com.typemytype.robofont.layerData'
p4
(dp5
S'outline-ref'
p6
(dp7
S'name'
p8
S'e'
sS'lib'
p9
(dp10
sS'unicodes'
p11
(lp12
sS'width'
p13
I521
sS'contours'
p14
(lp15
(dp16
S'points'
p17
(lp18
(dp19
S'segmentType'
p20
S'line'
p21
sS'x'
I333
sS'smooth'
p22
I00
sS'y'
I329
sa(dp23
S'y'
I371
sS'x'
I334
sg22
I00
sa(dp24
S'y'
I404
sS'x'
I332
sg22
I00
sa(dp25
g20
S'curve'
p26
sS'x'
I323
sg22
I01
sg8
S'inserted'
p27
sS'y'
I428
sa(dp28
S'y'
I451
sS'x'
I314
sg22
I00
sa(dp29
S'y'
I464
sS'x'
I298
sg22
I00
sa(dp30
g20
S'curve'
p31
sS'x'
I270
sg22
I01
sS'y'
I464
sa(dp32
S'y'
I464
sS'x'
I211
sg22
I00
sa(dp33
S'y'
I409
sS'x'
I193
sg22
I00
sa(dp34
g20
S'curve'
p35
sS'x'
I188
sg22
I00
sS'y'
I326
sasa(dp36
g17
(lp37
(dp38
g20
S'curve'
p39
sS'x'
I30
sg22
I01
sS'y'
I249
sa(dp40
S'y'
I317
sS'x'
I30
sg22
I00
sa(dp41
S'y'
I382
sS'x'
I56
sg22
I00
sa(dp42
g20
S'curve'
p43
sS'x'
I100
sg22
I01
sg8
S'inserted'
p44
sS'y'
I430
sa(dp45
S'y'
I478
sS'x'
I144
sg22
I00
sa(dp46
S'y'
I509
sS'x'
I205
sg22
I00
sa(dp47
g20
S'curve'
p48
sS'x'
I276
sg22
I01
sS'y'
I509
sa(dp49
S'y'
I509
sS'x'
I410
sg22
I00
sa(dp50
S'y'
I434
sS'x'
I490
sg22
I00
sa(dp51
g20
S'curve'
p52
sS'x'
I490
sg22
I01
sS'y'
I311
sa(dp53
g20
S'line'
p54
sS'x'
I490
sg22
I00
sS'y'
I281
sa(dp55
g20
S'line'
p56
sS'x'
I185
sg22
I00
sS'y'
I283
sa(dp57
g20
S'line'
p58
sS'x'
I185
sg22
I01
sS'y'
I266
sa(dp59
S'y'
I203
sS'x'
I185
sg22
I00
sa(dp60
S'y'
I156
sS'x'
I202
sg22
I00
sa(dp61
g20
S'curve'
p62
sS'x'
I229
sg22
I01
sg8
S'inserted'
p63
sS'y'
I124
sa(dp64
S'y'
I92
sS'x'
I256
sg22
I00
sa(dp65
S'y'
I75
sS'x'
I291
sg22
I00
sa(dp66
g20
S'curve'
p67
sS'x'
I330
sg22
I01
sS'y'
I75
sa(dp68
S'y'
I75
sS'x'
I384
sg22
I00
sa(dp69
S'y'
I99
sS'x'
I432
sg22
I00
sa(dp70
g20
S'curve'
p71
sS'x'
I451
sg22
I00
sS'y'
I127
sa(dp72
g20
S'line'
p73
sS'x'
I479
sg22
I00
sS'y'
I96
sa(dp74
S'y'
I54
sS'x'
I455
sg22
I00
sa(dp75
S'y'
I26
sS'x'
I422
sg22
I00
sa(dp76
g20
S'curve'
p77
sS'x'
I384
sg22
I01
sg8
S'inserted'
p78
sS'y'
I9
sa(dp79
S'y'
I-8
sS'x'
I345
sg22
I00
sa(dp80
S'y'
I-15
sS'x'
I303
sg22
I00
sa(dp81
g20
S'curve'
p82
sS'x'
I261
sg22
I01
sS'y'
I-15
sa(dp83
S'y'
I-15
sS'x'
I201
sg22
I00
sa(dp84
S'y'
I4
sS'x'
I144
sg22
I00
sa(dp85
g20
S'curve'
p86
sS'x'
I101
sg22
I01
sg8
S'inserted'
p87
sS'y'
I48
sa(dp88
S'y'
I91
sS'x'
I58
sg22
I00
sa(dp89
S'y'
I157
sS'x'
I30
sg22
I00
sasasS'components'
p90
(lp91
sS'anchors'
p92
(lp93
sss."
EndChar

StartChar: f
Encoding: 31 102 31
GlifName: f
Width: 325
VWidth: 0
Flags: W
LayerCount: 2
Fore
SplineSet
309 463 m 257
 189 463 l 257
 189 512 l 258
 189 647 224 688 290 688 c 256
 337 688 341 636 390 636 c 256
 415 636 455 667 453 692 c 256
 451 717 395 747 341 747 c 256
 184 747 105 610 105 506 c 258
 105 463 l 257
 24 463 l 257
 24 426 l 257
 105 426 l 257
 105 90 l 258
 105 58 93 48 71 40 c 258
 29 24 l 257
 29 0 l 257
 265 0 l 257
 265 24 l 257
 223 40 l 258
 201 48 189 58 189 90 c 258
 189 426 l 257
 299 406 l 257
 309 463 l 257
EndSplineSet
PickledDataWithLists: "(dp1
S'com.schriftgestaltung.Glyphs.lastChange'
p2
S'2016-07-14 02:04:40 +0000'
p3
s."
EndChar

StartChar: g
Encoding: 32 103 32
GlifName: g
Width: 546
VWidth: 0
Flags: W
LayerCount: 2
Fore
SplineSet
250 491 m 256
 135 491 68 400 68 321 c 256
 68 243 136 151 250 151 c 256
 364 151 433 243 433 321 c 256
 433 399 365 491 250 491 c 256
  PathStart: -2
250 448 m 256
 311 448 339 380 339 321 c 256
 339 261 311 194 250 194 c 256
 190 194 162 262 162 321 c 256
 162 381 189 448 250 448 c 256
  PathStart: -2
344 436 m 257
 530 386 l 257
 530 481 l 257
 344 451 l 257
 344 436 l 257
68 83 m 256
 66 5 162 -15 270 -15 c 256
 354 -15 412 -36 412 -87 c 256
 412 -143 397 -206 266 -206 c 256
 172 -206 128 -162 128 -106 c 256
 128 -73 145 -40 183 0 c 257
 157 1 l 257
 72 -40 40 -66 40 -122 c 256
 40 -184 97 -245 250 -245 c 256
 392 -245 506 -163 506 -75 c 256
 506 4 474 72 302 75 c 256
 203 77 145 74 145 130 c 256
 145 154 156 157 174 181 c 257
 151 191 l 257
 89 160 69 129 68 83 c 256
  PathStart: -2
EndSplineSet
PickledDataWithLists: "(dp1
S'com.schriftgestaltung.Glyphs.lastChange'
p2
S'2016-07-14 02:10:25 +0000'
p3
s."
EndChar

StartChar: h
Encoding: 33 104 33
GlifName: h
Width: 584
VWidth: 0
Flags: W
LayerCount: 2
Fore
SplineSet
260 0 m 257
 260 24 l 257
 218 40 l 258
 196 48 184 58 184 90 c 258
 184 312 l 258
 184 384 232 424 296 424 c 256
 344 424 400 402 400 320 c 258
 400 90 l 258
 400 58 388 48 366 40 c 258
 324 24 l 257
 324 0 l 257
 560 0 l 257
 560 24 l 257
 518 40 l 258
 496 48 484 58 484 90 c 258
 484 344 l 258
 484 404 438 488 328 488 c 256
 260 488 216 448 176 400 c 257
 172 400 l 257
 180 424 184 472 184 523 c 258
 184 736 l 258
 184 764 164 770 136 760 c 258
 24 720 l 257
 24 696 l 257
 66 682 l 258
 89 674 100 666 100 640 c 258
 100 90 l 258
 100 58 88 48 66 40 c 258
 24 24 l 257
 24 0 l 257
 260 0 l 257
EndSplineSet
PickledDataWithLists: "(dp1
S'com.schriftgestaltung.Glyphs.ColorIndex'
p2
I0
sS'com.schriftgestaltung.Glyphs.lastChange'
p3
S'2016-07-18 23:25:38 +0000'
p4
s."
EndChar

StartChar: i
Encoding: 34 105 34
GlifName: i
Width: 325
VWidth: 0
Flags: W
LayerCount: 2
Fore
SplineSet
150 580 m 256
 205 580 250 625 250 680 c 256
 250 740 205 780 150 780 c 256
 95 780 50 735 50 680 c 256
 50 625 95 580 150 580 c 256
90 90 m 258
 90 70 80 60 60 50 c 258
 20 30 l 257
 20 0 l 257
 310 0 l 257
 310 30 l 257
 270 50 l 258
 250 60 240 70 240 90 c 258
 240 470 l 258
 240 505 225 520 200 520 c 256
 180 520 150 505 130 495 c 258
 20 440 l 257
 20 410 l 257
 60 400 l 258
 80 395 90 380 90 340 c 258
 90 90 l 258
EndSplineSet
PickledDataWithLists: "(dp1
S'com.schriftgestaltung.Glyphs.ColorIndex'
p2
I0
sS'com.schriftgestaltung.Glyphs.lastChange'
p3
S'2016-07-18 23:25:41 +0000'
p4
s."
EndChar

StartChar: j
Encoding: 35 106 35
GlifName: j
Width: 250
VWidth: 0
Flags: W
LayerCount: 2
Fore
SplineSet
128 584 m 256
 164 584 194 615 194 651 c 256
 194 688 164 718 128 718 c 256
 91 718 60 688 60 651 c 256
 60 615 91 584 128 584 c 256
176 -56 m 258
 176 464 l 258
 176 492 158 498 130 488 c 258
 16 448 l 257
 16 424 l 257
 58 410 l 258
 81 402 92 394 92 368 c 258
 92 -80 l 258
 92 -120 86 -140 70 -156 c 258
 22 -204 l 257
 42 -224 l 257
 104 -192 176 -152 176 -56 c 258
EndSplineSet
PickledDataWithLists: "(dp1
S'com.schriftgestaltung.Glyphs.ColorIndex'
p2
I0
sS'com.schriftgestaltung.Glyphs.lastChange'
p3
S'2016-07-18 23:25:43 +0000'
p4
s."
EndChar

StartChar: k
Encoding: 36 107 36
GlifName: k
Width: 276
VWidth: 0
Flags: W
LayerCount: 2
Fore
SplineSet
464 90 m 258
 318 295 l 257
 414 392 l 258
 440 418 485 441 508 447 c 258
 550 458 l 257
 550 482 l 257
 314 482 l 257
 314 458 l 257
 356 445 l 258
 378 438 390 411 370 392 c 258
 264 295 l 257
 184 295 l 257
 184 712 l 258
 184 740 166 746 138 736 c 258
 24 696 l 257
 24 672 l 257
 66 658 l 258
 89 650 100 642 100 616 c 258
 100 90 l 258
 100 58 88 48 66 40 c 258
 24 24 l 257
 24 0 l 257
 260 0 l 257
 260 24 l 257
 218 40 l 258
 196 48 184 58 184 90 c 258
 184 254 l 257
 242 254 l 257
 410 0 l 257
 566 0 l 257
 566 24 l 257
 528 40 l 258
 506 49 479 69 464 90 c 258
  PathStart: -2
EndSplineSet
PickledDataWithLists: "(dp1
S'com.schriftgestaltung.Glyphs.lastChange'
p2
S'2016-07-14 02:21:23 +0000'
p3
s."
EndChar

StartChar: l
Encoding: 37 108 37
GlifName: l
Width: 315
VWidth: 0
Flags: W
LayerCount: 2
Fore
SplineSet
305 0 m 257
 305 30 l 257
 265 50 l 258
 245 60 235 70 235 90 c 257
 235 700 l 258
 235 735 220 750 195 750 c 256
 175 750 155 745 125 740 c 258
 15 720 l 257
 15 690 l 257
 55 680 l 258
 75 675 85 660 85 620 c 258
 85 90 l 258
 85 70 75 60 55 50 c 258
 15 30 l 257
 15 0 l 257
 305 0 l 257
EndSplineSet
PickledDataWithLists: "(dp1
S'com.schriftgestaltung.Glyphs.ColorIndex'
p2
I0
sS'com.schriftgestaltung.Glyphs.lastChange'
p3
S'2016-07-18 23:25:41 +0000'
p4
sS'com.typemytype.robofont.layerData'
p5
(dp6
S'outline-ref'
p7
(dp8
S'name'
p9
S'l'
sS'lib'
p10
(dp11
sS'unicodes'
p12
(lp13
sS'width'
p14
I315
sS'contours'
p15
(lp16
(dp17
S'points'
p18
(lp19
(dp20
S'segmentType'
p21
S'line'
p22
sS'x'
I305
sS'smooth'
p23
I00
sS'y'
I30
sa(dp24
g21
S'line'
p25
sS'x'
I265
sg23
I01
sS'y'
I50
sa(dp26
S'y'
I60
sS'x'
I245
sg23
I00
sa(dp27
S'y'
I70
sS'x'
I235
sg23
I00
sa(dp28
g21
S'curve'
p29
sS'x'
I235
sg23
I00
sS'y'
I90
sa(dp30
g21
S'line'
p31
sS'x'
I235
sg23
I01
sS'y'
I700
sa(dp32
S'y'
I735
sS'x'
I235
sg23
I00
sa(dp33
S'y'
I750
sS'x'
I220
sg23
I00
sa(dp34
g21
S'curve'
p35
sS'x'
I185
sg23
I01
sS'y'
I750
sa(dp36
S'y'
I750
sS'x'
I150
sg23
I00
sa(dp37
S'y'
I730
sS'x'
I60
sg23
I00
sa(dp38
g21
S'curve'
p39
sS'x'
I15
sg23
I00
sS'y'
I720
sa(dp40
g21
S'line'
p41
sS'x'
I15
sg23
I00
sS'y'
I690
sa(dp42
g21
S'line'
p43
sS'x'
I45
sg23
I01
sS'y'
I680
sa(dp44
S'y'
I670
sS'x'
I75
sg23
I00
sa(dp45
S'y'
I650
sS'x'
I85
sg23
I00
sa(dp46
g21
S'curve'
p47
sS'x'
I85
sg23
I01
sS'y'
I610
sa(dp48
g21
S'line'
p49
sS'x'
I85
sg23
I01
sS'y'
I90
sa(dp50
S'y'
I70
sS'x'
I85
sg23
I00
sa(dp51
S'y'
I60
sS'x'
I75
sg23
I00
sa(dp52
g21
S'curve'
p53
sS'x'
I55
sg23
I01
sS'y'
I50
sa(dp54
g21
S'line'
p55
sS'x'
I15
sg23
I00
sS'y'
I30
sa(dp56
g21
S'line'
p57
sS'x'
I15
sg23
I00
sS'y'
I0
sa(dp58
g21
S'line'
p59
sS'x'
I305
sg23
I00
sS'y'
I0
sasasS'components'
p60
(lp61
sS'anchors'
p62
(lp63
sss."
EndChar

StartChar: m
Encoding: 38 109 38
GlifName: m
Width: 900
VWidth: 0
Flags: W
LayerCount: 2
Fore
SplineSet
268 24 m 257
 226 40 l 258
 204 48 192 58 192 90 c 257
 192 312 l 258
 192 384 237 424 302 424 c 256
 344 424 408 402 408 320 c 258
 408 90 l 257
 408 58 396 48 374 40 c 258
 332 24 l 257
 332 0 l 257
 568 0 l 257
 568 24 l 257
 526 40 l 258
 504 48 492 58 492 90 c 257
 492 344 l 258
 492 404 443 487 333 487 c 256
 265 487 219 438 184 408 c 257
 176 408 l 257
 184 424 192 448 192 472 c 256
 192 500 174 506 146 496 c 258
 32 456 l 257
 32 432 l 257
 74 418 l 258
 97 410 108 402 108 376 c 258
 108 90 l 257
 108 58 96 48 74 40 c 258
 32 24 l 257
 32 0 l 257
 268 0 l 257
 268 24 l 257
492 312 m 257
 492 384 537 424 602 424 c 256
 644 424 708 402 708 320 c 258
 708 90 l 257
 708 58 696 48 674 40 c 258
 632 24 l 257
 632 0 l 257
 868 0 l 257
 868 24 l 257
 826 40 l 258
 804 48 792 58 792 90 c 257
 792 344 l 258
 792 404 743 487 633 487 c 256
 565 487 499 428 464 398 c 257
 492 312 l 257
EndSplineSet
PickledDataWithLists: "(dp1
S'com.schriftgestaltung.Glyphs.lastChange'
p2
S'2016-07-14 02:11:41 +0000'
p3
s."
EndChar

StartChar: n
Encoding: 39 110 39
GlifName: n
Width: 640
VWidth: 0
Flags: W
LayerCount: 2
Fore
SplineSet
305 30 m 257
 275 40 l 258
 250 48 245 70 245 110 c 257
 245 340 l 258
 245 390 265 430 325 430 c 256
 385 430 405 380 405 340 c 258
 405 110 l 257
 405 70 400 48 375 40 c 258
 345 30 l 257
 345 0 l 257
 635 0 l 257
 635 30 l 257
 595 40 l 258
 570 46 555 70 555 110 c 257
 555 350 l 258
 555 450 496 510 394 510 c 256
 335 510 265 470 245 420 c 257
 235 420 l 257
 235 470 l 258
 235 505 220 520 185 520 c 256
 150 520 70 475 25 450 c 257
 25 420 l 257
 55 410 l 258
 85 400 95 380 95 340 c 258
 95 110 l 257
 95 70 90 48 65 40 c 258
 35 30 l 257
 35 0 l 257
 305 0 l 257
 305 30 l 257
EndSplineSet
PickledDataWithLists: "(dp1
S'com.schriftgestaltung.Glyphs.ColorIndex'
p2
I0
sS'com.schriftgestaltung.Glyphs.lastChange'
p3
S'2016-07-18 23:25:47 +0000'
p4
s."
EndChar

StartChar: o
Encoding: 40 111 40
GlifName: o
Width: 512
VWidth: 0
Flags: W
LayerCount: 2
Fore
SplineSet
256 32 m 257
 167 32 128 122 128 233 c 257
 128 344 167 434 256 434 c 257
 345 434 384 344 384 233 c 257
 384 122 345 32 256 32 c 257
256 -10 m 257
 391 -10 488 101 488 233 c 257
 488 365 391 476 256 476 c 257
 121 476 24 365 24 233 c 257
 24 101 121 -10 256 -10 c 257
EndSplineSet
PickledDataWithLists: "(dp1
S'com.schriftgestaltung.Glyphs.ColorIndex'
p2
I0
sS'com.schriftgestaltung.Glyphs.lastChange'
p3
S'2016-07-18 23:25:50 +0000'
p4
s."
EndChar

StartChar: p
Encoding: 41 112 41
GlifName: p
Width: 600
VWidth: 0
Flags: W
LayerCount: 2
Fore
SplineSet
539 240 m 256
 539 388 440 490 306 490 c 256
 254 490 212 475 180 448 c 257
 130 481 l 257
 100 457 l 257
 100 -135 l 258
 100 -161 89 -169 66 -177 c 258
 24 -191 l 257
 24 -215 l 257
 138 -255 l 258
 166 -265 184 -259 184 -231 c 258
 184 78 l 257
 196 43 257 -10 306 -10 c 256
 441 -10 539 92 539 240 c 256
  PathStart: -2
445 240 m 256
 445 111 387 33 306 33 c 256
 225 33 184 110 184 240 c 256
 184 369 226 457 306 457 c 256
 387 457 445 370 445 240 c 256
  PathStart: -2
EndSplineSet
PickledDataWithLists: "(dp1
S'com.schriftgestaltung.Glyphs.lastChange'
p2
S'2016-07-13 23:33:41 +0000'
p3
s."
EndChar

StartChar: period
Encoding: 42 46 42
GlifName: period
Width: 278
VWidth: 0
Flags: W
LayerCount: 2
Fore
SplineSet
139 118 m 256
 104 118 75 90 75 54 c 256
 75 18 104 -9 139 -9 c 256
 174 -9 202 19 202 54 c 256
 202 90 174 118 139 118 c 256
EndSplineSet
PickledDataWithLists: "(dp1
S'com.schriftgestaltung.Glyphs.ColorIndex'
p2
I0
sS'com.schriftgestaltung.Glyphs.lastChange'
p3
S'2016-07-13 23:33:45 +0000'
p4
sS'public.markColor'
p5
S'0.85,0.26,0.06,1'
p6
s."
EndChar

StartChar: q
Encoding: 43 113 43
GlifName: q
Width: 600
VWidth: 0
Flags: W
LayerCount: 2
Fore
SplineSet
409 79 m 257
 409 -230 l 258
 409 -258 427 -264 455 -254 c 258
 569 -214 l 257
 569 -190 l 257
 527 -176 l 258
 504 -168 493 -160 493 -134 c 258
 493 458 l 257
 463 482 l 257
 413 449 l 257
 381 476 339 491 287 491 c 256
 153 491 54 389 54 241 c 256
 54 93 152 -9 287 -9 c 256
 336 -9 397 44 409 79 c 257
  PathStart: -2
409 241 m 256
 409 111 368 34 287 34 c 256
 206 34 148 112 148 241 c 256
 148 371 206 458 287 458 c 256
 367 458 409 370 409 241 c 256
  PathStart: -2
EndSplineSet
PickledDataWithLists: "(dp1
S'com.schriftgestaltung.Glyphs.lastChange'
p2
S'2016-07-13 23:33:41 +0000'
p3
s."
EndChar

StartChar: r
Encoding: 44 114 44
GlifName: r
Width: 480
VWidth: 0
Flags: W
LayerCount: 2
Fore
SplineSet
335 30 m 257
 285 40 l 258
 260 45 245 70 245 110 c 257
 245 340 l 258
 245 380 285 400 315 400 c 257
 325 360 345 330 395 330 c 256
 436 330 475 370 475 420 c 256
 475 470 435 510 375 510 c 256
 315 510 285 470 245 420 c 257
 235 420 l 257
 235 470 l 258
 235 505 220 520 185 520 c 256
 165 520 145 510 125 500 c 258
 25 450 l 257
 25 420 l 257
 65 410 l 258
 85 405 95 380 95 340 c 258
 95 110 l 257
 95 70 90 48 65 40 c 258
 35 30 l 257
 35 0 l 257
 335 0 l 257
 335 30 l 257
EndSplineSet
PickledDataWithLists: "(dp1
S'com.schriftgestaltung.Glyphs.lastChange'
p2
S'2016-07-13 23:33:41 +0000'
p3
s."
EndChar

StartChar: s
Encoding: 45 115 45
GlifName: s
Width: 400
VWidth: 0
Flags: W
LayerCount: 2
Fore
SplineSet
346 345 m 257
 357 464 l 257
 311 472 279 486 219 487 c 257
 159 488 45 442 44 354 c 256
 43 266 126 230 186 202 c 256
 246 174 281 154 284 113 c 256
 287 72 271 26 211 26 c 256
 151 26 118 55 106 85 c 258
 80 153 l 257
 48 151 l 257
 47 14 l 257
 94 5 122 -12 189 -12 c 257
 256 -12 372 20 375 139 c 256
 377 218 323 240 242 282 c 256
 161 324 136 336 135 377 c 256
 134 418 163 452 229 451 c 256
 295 450 281 435 289 418 c 258
 309 345 l 257
 346 345 l 257
EndSplineSet
PickledDataWithLists: "(dp1
S'com.schriftgestaltung.Glyphs.lastChange'
p2
S'2016-07-13 23:41:00 +0000'
p3
s."
EndChar

StartChar: t
Encoding: 47 116 47
GlifName: t
Width: 395
VWidth: 0
Flags: W
LayerCount: 2
Fore
SplineSet
240 190 m 257
 240 137 240 60 310 60 c 256
 330 60 360 70 390 80 c 257
 390 30 l 257
 340 -10 290 -15 240 -15 c 256
 147 -15 90 34 90 120 c 258
 90 410 l 257
 0 410 l 257
 0 460 l 257
 90 490 150 520 180 590 c 257
 240 590 l 257
 240 460 l 257
 370 460 l 257
 370 410 l 257
 240 410 l 257
 240 190 l 257
EndSplineSet
PickledDataWithLists: "(dp1
S'com.schriftgestaltung.Glyphs.lastChange'
p2
S'2016-07-13 23:44:15 +0000'
p3
s."
EndChar

StartChar: u
Encoding: 48 117 48
GlifName: u
Width: 569
VWidth: 0
Flags: W
LayerCount: 2
Fore
SplineSet
332 477 m 257
 374 461 l 258
 396 453 408 443 408 411 c 257
 408 189 l 258
 408 117 363 77 298 77 c 256
 256 77 192 99 192 181 c 258
 192 411 l 257
 192 443 204 453 226 461 c 258
 268 477 l 257
 268 501 l 257
 32 501 l 257
 32 477 l 257
 74 461 l 258
 96 453 108 443 108 411 c 257
 108 157 l 258
 108 97 157 14 267 14 c 256
 335 14 381 63 416 93 c 257
 424 93 l 257
 416 77 408 53 408 29 c 256
 408 1 426 -5 454 5 c 258
 568 45 l 257
 568 69 l 257
 526 83 l 258
 503 91 492 99 492 125 c 258
 492 411 l 257
 492 443 504 453 526 461 c 258
 568 477 l 257
 568 501 l 257
 332 501 l 257
 332 477 l 257
EndSplineSet
PickledDataWithLists: "(dp1
S'com.schriftgestaltung.Glyphs.lastChange'
p2
S'2016-07-13 23:47:49 +0000'
p3
s."
EndChar

StartChar: v
Encoding: 49 118 49
GlifName: v
Width: 494
VWidth: 0
Flags: W
LayerCount: 2
Fore
SplineSet
332 456 m 257
 374 440 l 258
 396 432 419 422 408 390 c 257
 262 44 l 257
 294 66 l 257
 152 390 l 257
 138 422 164 432 186 440 c 258
 228 456 l 257
 228 480 l 257
 -8 480 l 257
 -8 456 l 257
 34 440 l 258
 56 432 59 419 68 390 c 257
 225 0 l 257
 282 0 l 257
 447 390 l 257
 460 416 464 432 486 440 c 258
 528 456 l 257
 528 480 l 257
 332 480 l 257
 332 456 l 257
EndSplineSet
PickledDataWithLists: "(dp1
S'com.schriftgestaltung.Glyphs.lastChange'
p2
S'2016-07-13 23:46:35 +0000'
p3
s."
EndChar

StartChar: w
Encoding: 50 119 50
GlifName: w
Width: 900
VWidth: 0
Flags: W
LayerCount: 2
Fore
SplineSet
868 477 m 257
 868 501 l 257
 632 501 l 257
 632 477 l 257
 674 461 l 258
 696 453 708 443 708 411 c 258
 708 189 l 258
 708 117 663 77 598 77 c 256
 556 77 492 99 492 181 c 258
 492 411 l 258
 492 443 504 453 526 461 c 258
 568 477 l 257
 568 501 l 257
 332 501 l 257
 332 477 l 257
 374 461 l 258
 396 453 408 443 408 411 c 258
 408 189 l 258
 408 117 363 77 298 77 c 256
 256 77 192 99 192 181 c 258
 192 411 l 258
 192 443 204 453 226 461 c 258
 268 477 l 257
 268 501 l 257
 32 501 l 257
 32 477 l 257
 74 461 l 258
 96 453 108 443 108 411 c 258
 108 157 l 258
 108 97 157 14 267 14 c 256
 335 14 381 63 416 93 c 257
 424 93 l 257
 416 77 408 53 408 29 c 256
 408 1 426 -5 454 5 c 258
 507 24 l 257
 524 17 544 14 567 14 c 256
 635 14 681 63 716 93 c 257
 724 93 l 257
 716 77 708 53 708 29 c 256
 708 1 726 -5 754 5 c 258
 868 45 l 257
 868 69 l 257
 826 83 l 258
 803 91 792 99 792 125 c 258
 792 411 l 258
 792 443 804 453 826 461 c 258
 868 477 l 257
EndSplineSet
PickledDataWithLists: "(dp1
S'com.schriftgestaltung.Glyphs.lastChange'
p2
S'2016-07-14 12:44:58 +0000'
p3
s."
EndChar

StartChar: x
Encoding: 51 120 51
GlifName: x
Width: 600
VWidth: 0
Flags: W
LayerCount: 2
Fore
SplineSet
300 489 m 257
 51 485 l 257
 47 456 l 257
 75 443 112 457 130 418 c 257
 359 66 l 257
 355 54 360 35 346 29 c 257
 313 23 l 257
 313 -6 l 257
 567 -6 l 257
 561 24 l 257
 534 40 531 11 480 73 c 257
 241 413 l 257
 233 423 233 449 261 452 c 256
 300 463 l 257
 300 489 l 257
354 461 m 257
 405 461 436 457 406 415 c 257
 307 281 l 257
 313 249 l 257
 457 408 l 257
 478 422 489 444 520 450 c 257
 553 456 l 257
 547 488 l 257
 356 485 l 257
 354 461 l 257
101 45 m 257
 55 9 57 36 35 31 c 257
 30 5 l 257
 227 1 l 257
 227 23 l 257
 199 30 l 257
 186 30 187 57 181 71 c 257
 280 209 l 257
 267 232 l 257
 101 45 l 257
EndSplineSet
PickledDataWithLists: "(dp1
S'com.schriftgestaltung.Glyphs.lastChange'
p2
S'2016-07-14 02:49:27 +0000'
p3
s."
EndChar

StartChar: y
Encoding: 52 121 52
GlifName: y
Width: 600
VWidth: 0
Flags: W
LayerCount: 2
Fore
SplineSet
296 0 m 257
 326 66 l 257
 192 390 l 258
 181 416 204 432 226 440 c 258
 268 456 l 257
 268 480 l 257
 32 480 l 257
 32 456 l 257
 74 440 l 258
 96 432 100 414 108 390 c 258
 243 0 l 257
 296 0 l 257
117 -269 m 257
 211 -269 l 257
 492 390 l 257
 492 422 504 432 526 440 c 258
 568 456 l 257
 568 480 l 257
 362 480 l 257
 362 456 l 257
 404 440 l 258
 426 432 438 422 438 390 c 257
 261 -26 l 257
 117 -269 l 257
EndSplineSet
PickledDataWithLists: "(dp1
S'com.schriftgestaltung.Glyphs.lastChange'
p2
S'2016-07-14 02:50:15 +0000'
p3
s."
EndChar

StartChar: z
Encoding: 53 122 53
GlifName: z
Width: 468
VWidth: 0
Flags: W
LayerCount: 2
Fore
SplineSet
456 167 m 257
 442 1 l 257
 11 3 l 257
 13 35 l 257
 307 443 l 257
 146 440 l 257
 101 440 68 388 71 327 c 257
 33 327 l 257
 34 481 l 257
 441 479 l 257
 438 450 l 257
 141 41 l 257
 353 44 l 257
 400 44 423 106 422 170 c 257
 456 167 l 257
EndSplineSet
PickledDataWithLists: "(dp1
S'com.schriftgestaltung.Glyphs.lastChange'
p2
S'2016-07-14 02:30:46 +0000'
p3
s."
EndChar
